<svg width="27" height="16" viewBox="0 0 27 16" fill="none" xmlns="http://www.w3.org/2000/svg">
<g clip-path="url(#clip0_165_424)">
<path d="M26.1786 0H4.82143C4.60357 0 4.39464 0.105357 4.24059 0.292893C4.08654 0.48043 4 0.734784 4 1C4 1.26522 4.08654 1.51957 4.24059 1.70711C4.39464 1.89464 4.60357 2 4.82143 2H26.1786C26.3964 2 26.6054 1.89464 26.7594 1.70711C26.9135 1.51957 27 1.26522 27 1C27 0.734784 26.9135 0.48043 26.7594 0.292893C26.6054 0.105357 26.3964 0 26.1786 0Z" fill="white"/>
<path d="M26.0357 7H0.964286C0.708541 7 0.463271 7.10536 0.282433 7.29289C0.101594 7.48043 0 7.73478 0 8C0 8.26522 0.101594 8.51957 0.282433 8.70711C0.463271 8.89464 0.708541 9 0.964286 9H26.0357C26.2915 9 26.5367 8.89464 26.7176 8.70711C26.8984 8.51957 27 8.26522 27 8C27 7.73478 26.8984 7.48043 26.7176 7.29289C26.5367 7.10536 26.2915 7 26.0357 7Z" fill="white"/>
<path d="M26.0357 13.8667H4.82146C4.56572 13.8667 4.32045 13.9721 4.13961 14.1596C3.95877 14.3471 3.85718 14.6015 3.85718 14.8667C3.85718 15.1319 3.95877 15.3863 4.13961 15.5738C4.32045 15.7613 4.56572 15.8667 4.82146 15.8667H26.0357C26.2915 15.8667 26.5368 15.7613 26.7176 15.5738C26.8984 15.3863 27 15.1319 27 14.8667C27 14.6015 26.8984 14.3471 26.7176 14.1596C26.5368 13.9721 26.2915 13.8667 26.0357 13.8667Z" fill="white"/>
</g>
<defs>
<clipPath id="clip0_165_424">
<rect width="27" height="16" fill="white"/>
</clipPath>
</defs>
</svg>
