<?xml version="1.0" encoding="utf-8"?>
<!-- Generator: Adobe Illustrator 26.5.0, SVG Export Plug-In . SVG Version: 6.00 Build 0)  -->
<svg version="1.1" id="Layer_1" xmlns="http://www.w3.org/2000/svg" xmlns:xlink="http://www.w3.org/1999/xlink" x="0px" y="0px"
	 viewBox="0 0 1920 457" style="enable-background:new 0 0 1920 457;" xml:space="preserve">
<style type="text/css">
	.st0{fill:#5772A3;}
	.st1{fill:#6A86C3;}
	.st2{clip-path:url(#SVGID_00000182490143426588010040000009563442861505659272_);}
	.st3{fill-rule:evenodd;clip-rule:evenodd;}
	.st4{clip-path:url(#SVGID_00000144301175581211456390000004734145591530632844_);}
	.st5{clip-path:url(#SVGID_00000110443638534943736720000014141463773052529595_);}
	.st6{clip-path:url(#SVGID_00000067921125904543235030000012088177735365829039_);}
	.st7{clip-path:url(#SVGID_00000181054256348915640160000005478595292487358655_);}
</style>
<g>
	
		<rect x="-39.3" y="158.7" transform="matrix(0.9998 -1.751069e-02 1.751069e-02 0.9998 -3.611 17.0251)" class="st0" width="2019.4" height="112"/>
</g>
<g>
	
		<rect x="-50" y="158.7" transform="matrix(0.9962 -8.715574e-02 8.715574e-02 0.9962 -15.0618 84.4591)" class="st1" width="2019.4" height="112"/>
</g>
<g>
	<defs>
		
			<rect id="SVGID_1_" x="963.9" y="187.2" transform="matrix(0.9962 -8.711036e-02 8.711036e-02 0.9962 -14.5786 88.2493)" width="80" height="48"/>
	</defs>
	<clipPath id="SVGID_00000108289612098969959990000011510334229469628090_">
		<use xlink:href="#SVGID_1_"  style="overflow:visible;"/>
	</clipPath>
	<g style="clip-path:url(#SVGID_00000108289612098969959990000011510334229469628090_);">
		<path class="st3" d="M1043.2,209.6c-0.5-5.6-3.6-9.8-8.8-9.4c-5.2,0.5-8,5.2-7.5,10.7c0.6,6.6,4.6,9.6,10,9.1c2.6-0.2,4.5-1,6-2
			l-0.4-4.4c-1.4,0.9-3.1,1.5-5.3,1.7c-2.1,0.2-4.1-0.4-4.6-3l10.7-0.9C1043.3,211.2,1043.2,210.1,1043.2,209.6z M1032.1,208.4
			c-0.2-2.5,1.2-3.6,2.6-3.8c1.3-0.1,2.9,0.8,3.1,3.3L1032.1,208.4z"/>
		<path class="st3" d="M1017.5,201.7c-2.2,0.2-3.5,1.3-4.2,2.1l-0.4-1.3l-4.8,0.4l2.2,25.6l5.4-1.6l-0.5-6.2c0.8,0.5,2.1,1.2,4,1
			c3.9-0.3,7.2-3.8,6.6-10.8C1025.3,204.5,1021.4,201.3,1017.5,201.7z M1017.5,216.9c-1.3,0.1-2.1-0.3-2.7-0.8l-0.7-8.1
			c0.5-0.7,1.3-1.2,2.5-1.3c2-0.2,3.6,1.9,3.8,4.8C1020.7,214.4,1019.5,216.7,1017.5,216.9z"/>
		<path class="st3" d="M1000.4,201.9l5.4-1.7l-0.4-4.5l-5.4,1.6L1000.4,201.9z"/>
		<path d="M1006.1,203l-5.5,0.5l1.7,19.2l5.5-0.5L1006.1,203z"/>
		<path class="st3" d="M994.8,205.7l-0.5-1.6l-4.7,0.4l1.7,19.2l5.5-0.5l-1.1-13c1.1-1.8,3.4-1.7,4.1-1.5l-0.4-5
			C998.5,203.4,995.9,203.2,994.8,205.7z"/>
		<path class="st3" d="M983.3,200.2l-5.3,1.6l1.5,17.6c0.3,3.2,2.9,5.4,6.2,5.1c1.8-0.2,3.1-0.6,3.8-1.1l-0.4-4.5
			c-0.7,0.3-4.1,1.7-4.3-1.6l-0.7-7.8l4.2-0.4l-0.4-4.7l-4.2,0.4L983.3,200.2z"/>
		<path class="st3" d="M969.4,211.9c-0.1-0.9,0.6-1.2,1.8-1.3c1.7-0.1,3.8,0.2,5.6,0.9l-0.5-5.2c-1.9-0.6-3.7-0.7-5.5-0.5
			c-4.5,0.4-7.2,3-6.9,6.9c0.5,6.1,8.8,4.4,9,7c0.1,1-0.8,1.4-2,1.5c-1.8,0.2-4.2-0.4-6.1-1.2l0.5,5.2c2.1,0.7,4.2,0.9,6.1,0.7
			c4.6-0.4,7.5-2.9,7.2-6.9C977.8,212.4,969.6,214.3,969.4,211.9z"/>
	</g>
</g>
<g>
	<defs>
		
			<rect id="SVGID_00000126286802227261162650000007480146739950735037_" x="725.7" y="205.6" transform="matrix(0.9962 -8.711036e-02 8.711036e-02 0.9962 -16.9845 69.9656)" width="135" height="48"/>
	</defs>
	<clipPath id="SVGID_00000147201881876927981790000003472516003582291614_">
		<use xlink:href="#SVGID_00000126286802227261162650000007480146739950735037_"  style="overflow:visible;"/>
	</clipPath>
	<g style="clip-path:url(#SVGID_00000147201881876927981790000003472516003582291614_);">
		<path d="M752.3,225.8c-4.9,0.4-8.3,4.4-7.9,9.4s4.5,8.3,9.4,7.8c5-0.4,8.4-4.5,8-9.4C761.3,228.8,757.3,225.4,752.3,225.8z
			 M753.5,239.5c-2.8,0.2-5-1.7-5.2-4.6c-0.3-2.9,1.6-5.2,4.3-5.5c2.8-0.2,5,1.8,5.3,4.6C758.1,236.9,756.3,239.3,753.5,239.5z
			 M762.4,228.7l2.4-0.2l1.2,13.2l3.9-0.3l-1.4-16.6l-6.3,0.5L762.4,228.7z M734.2,231c2-0.2,3.7,0.9,4.5,2.7l4.1-0.4
			c-1.1-3.9-4.6-6.3-8.9-5.9c-4.9,0.4-8.3,4.4-7.9,9.4s4.5,8.3,9.4,7.8c4.2-0.4,7.3-3.4,7.7-7.4l-4.1,0.4c-0.4,1.9-1.9,3.3-3.9,3.5
			c-2.8,0.2-5-1.7-5.2-4.6C729.7,233.6,731.4,231.2,734.2,231z M836.1,225.6l-2.9-0.2c-1.4-0.1-2.4-0.4-2.5-1.5
			c-0.1-1.2,1.1-1.8,2.8-2c1.9-0.2,3.1,0.5,3.5,1.8l3.7-0.3c-0.7-3.3-3.5-5-7.4-4.7c-4.1,0.4-6.6,2.7-6.4,5.6
			c0.2,2.8,2.2,4.3,5.8,4.5l2.9,0.2c1.4,0.1,2.2,0.6,2.3,1.6c0.1,1.3-1.2,2-3.1,2.1c-2.3,0.2-3.7-0.6-4-2l-3.8,0.3
			c0.6,3.2,3.4,5.3,8,4.9c4.2-0.4,6.8-2.5,6.6-5.8C841.5,227.2,839.3,225.8,836.1,225.6z M765.9,218.1c-1.4,0.1-2.4,1.2-2.3,2.7
			c0.1,1.4,1.3,2.3,2.7,2.2c1.4-0.1,2.4-1.2,2.3-2.7C768.4,218.9,767.3,218,765.9,218.1z M823.7,225.6c-0.3-3.6-2.7-5.8-7.4-5.4
			c-4.4,0.4-6.6,2.8-6.8,6.3l3.8-0.3c0.1-1.3,1-2.5,3.2-2.7c2-0.2,3,0.6,3.1,1.7c0.1,1.4-1.6,1.9-3.8,2.3c-2.9,0.6-6.5,1.9-6.2,5.8
			c0.3,3,2.7,4.7,6.2,4.4c2.8-0.2,4.4-1.6,5.1-3.5c0.3,1.6,1.6,2.6,3.3,2.4l2.3-0.2l-0.3-3.4l-1.9,0.2L823.7,225.6L823.7,225.6z
			 M820.2,230.1c0.2,2.2-1.6,4-3.9,4.2c-1.4,0.1-2.7-0.4-2.8-1.7c-0.1-1.6,1.8-2.3,3.6-2.6c1.7-0.3,2.7-0.8,3.1-1.6L820.2,230.1z
			 M798.8,221.8c-2.2,0.2-3.9,1.2-5,2.9l-0.8-9.1l-3.9,0.3l2.1,23.6l3.8-0.3l-0.2-2.2c1.4,1.5,3.3,2.2,5.5,2
			c4.6-0.4,7.8-4.4,7.4-9.3C807.3,224.7,803.4,221.4,798.8,221.8z M799.4,235.5c-2.8,0.2-5-1.7-5.2-4.6c-0.3-2.9,1.6-5.2,4.4-5.5
			c2.8-0.2,5,1.7,5.2,4.7C804,232.9,802.2,235.2,799.4,235.5z M780.5,223.4c-2.5,0.2-4.1,1.4-4.9,2.9l-0.2-2.1l-3.8,0.3l1.4,16.6
			l3.9-0.3l-0.8-9c-0.2-2.5,1.2-4.5,3.6-4.7c2.2-0.2,3.7,1.3,3.9,3.5l0.8,9.5l3.9-0.3l-0.9-9.8C787.1,225.8,784.7,223,780.5,223.4z
			 M859.8,224.6c-0.4-4.7-4.2-7.8-8.9-7.4c-5,0.4-8.3,4.5-7.8,9.4c0.5,5.2,4.6,8.3,9.4,7.8c4-0.4,7-3,7.5-6.4l-4,0.4
			c-0.4,1.5-1.8,2.5-3.7,2.7c-2.5,0.2-4.5-1.2-5.1-3.8l12.8-1.1L859.8,224.6L859.8,224.6z M847.2,224.4c0.4-2.4,2.1-3.6,4-3.8
			c2.2-0.2,4,0.9,4.5,3.1L847.2,224.4z"/>
	</g>
</g>
<g>
	<defs>
		
			<rect id="SVGID_00000134970571652169074170000011285984037420278436_" x="1147" y="168.4" transform="matrix(0.9962 -8.711036e-02 8.711036e-02 0.9962 -12.1273 106.8787)" width="143" height="48"/>
	</defs>
	<clipPath id="SVGID_00000047780433738849941490000017435117487444092061_">
		<use xlink:href="#SVGID_00000134970571652169074170000011285984037420278436_"  style="overflow:visible;"/>
	</clipPath>
	<g style="clip-path:url(#SVGID_00000047780433738849941490000017435117487444092061_);">
		<path d="M1199.3,182.8l-7.8,0.7c-0.5,0-1,0.5-1,1l-1.4,20.4c0,0.4,0.3,0.7,0.7,0.7l3.8-0.3c0.5,0,1-0.5,1-1l0.4-5.5
			c0-0.5,0.5-1,1-1l2.5-0.2c5.2-0.5,7.9-3.2,8.3-8.2c0.2-2.2-0.3-3.9-1.4-5C1204,183.1,1202,182.6,1199.3,182.8z M1200.9,190.1
			c-0.2,2.9-2.3,3-4.4,3.2l-1.2,0.1l0.4-5.3c0-0.3,0.3-0.6,0.6-0.6l0.6,0c1.4-0.1,2.8-0.2,3.5,0.5
			C1200.8,188.4,1201,189.1,1200.9,190.1z"/>
		<path d="M1223.4,188l-3.8,0.3c-0.3,0-0.6,0.3-0.6,0.6l-0.1,1.1l-0.3-0.4c-0.9-1.1-2.8-1.3-4.6-1.2c-4.2,0.4-7.4,3.8-7.7,8.3
			c-0.2,2.2,0.5,4.3,1.9,5.6c1.3,1.2,2.9,1.7,4.9,1.5c3.3-0.3,5-2.6,5-2.6l-0.1,1.1c0,0.4,0.3,0.7,0.7,0.7l3.4-0.3
			c0.5,0,0.9-0.5,1-1l0.9-13C1224.2,188.3,1223.8,188,1223.4,188z M1218.8,195.8c-0.2,2.2-1.8,3.8-3.9,4c-1.1,0.1-2-0.2-2.6-0.8
			c-0.6-0.6-0.9-1.5-0.8-2.6c0.2-2.2,1.8-3.8,3.9-4c1.1-0.1,2,0.2,2.6,0.8C1218.6,193.8,1218.9,194.7,1218.8,195.8z"/>
		<path d="M1243.4,186.3l-3.8,0.3c-0.4,0-0.7,0.2-0.9,0.6l-4.5,8.1l-2.9-7.2c-0.2-0.4-0.6-0.7-1.1-0.7l-3.7,0.3
			c-0.4,0-0.7,0.5-0.5,0.9l5.2,11.8l-3.4,5.9c-0.3,0.5,0.1,1,0.6,1l3.8-0.3c0.4,0,0.7-0.2,0.8-0.5l11-19.2
			C1244.3,186.8,1244,186.2,1243.4,186.3z"/>
		<path d="M1255.3,177.9l-7.8,0.7c-0.5,0-1,0.5-1,1L1245,200c0,0.4,0.3,0.7,0.7,0.7l4-0.4c0.4,0,0.7-0.3,0.7-0.7l0.4-5.8
			c0-0.5,0.5-1,1-1l2.5-0.2c5.2-0.5,7.9-3.2,8.3-8.2c0.2-2.2-0.3-3.9-1.5-5C1260,178.2,1257.9,177.7,1255.3,177.9z M1256.8,185.2
			c-0.2,2.9-2.3,3-4.4,3.2l-1.2,0.1l0.4-5.3c0-0.3,0.3-0.6,0.6-0.6l0.6,0c1.4-0.1,2.8-0.2,3.5,0.5
			C1256.7,183.5,1256.9,184.2,1256.8,185.2z"/>
		<path d="M1279.4,183.1l-3.8,0.3c-0.3,0-0.6,0.3-0.6,0.6l-0.1,1.1l-0.3-0.4c-0.9-1.1-2.8-1.3-4.6-1.2c-4.2,0.4-7.4,3.8-7.7,8.3
			c-0.2,2.2,0.5,4.3,1.9,5.6c1.3,1.2,2.9,1.7,4.9,1.5c3.3-0.3,5-2.6,5-2.6l-0.1,1.1c0,0.4,0.3,0.7,0.7,0.7l3.4-0.3c0.5,0,1-0.5,1-1
			l0.9-13C1280.1,183.4,1279.8,183.1,1279.4,183.1z M1274.8,190.9c-0.2,2.2-1.8,3.8-3.9,4c-1.1,0.1-2-0.2-2.6-0.8
			c-0.6-0.6-0.9-1.5-0.8-2.6c0.2-2.2,1.8-3.8,3.9-4c1.1-0.1,2,0.2,2.6,0.8C1274.6,188.9,1274.9,189.8,1274.8,190.9z"/>
		<path d="M1283.2,176l-1.4,20.8c0,0.4,0.3,0.7,0.7,0.7l3.2-0.3c0.5,0,1-0.5,1-1l1.4-20.4c0-0.4-0.3-0.7-0.7-0.7l-3.6,0.3
			C1283.5,175.4,1283.2,175.7,1283.2,176z"/>
		<path d="M1156.9,212.4l0.3-3.9l-1.3,0.1l-6.4,0.6l2-28.5c0-0.1,0-0.2,0.1-0.2c0.1-0.1,0.1-0.1,0.2-0.1l10.8-0.9
			c3.6-0.3,6.1,0.2,7.5,1.6c0.7,0.6,1.1,1.3,1.4,2.1c0.3,0.8,0.3,1.8,0.3,3l0,0.1l0.1,0.8l0.6,0.3c0.5,0.2,1,0.5,1.3,0.8
			c0.6,0.5,1,1.3,1.2,2.1c0.2,0.9,0.3,2,0.1,3.2c-0.2,1.4-0.5,2.7-1,3.8c-0.5,1-1.1,1.8-1.9,2.5c-0.8,0.6-1.7,1.1-2.7,1.5
			c-1,0.4-2.2,0.6-3.5,0.7l-0.8,0.1c-0.6,0.1-1.2,0.3-1.6,0.7c-0.4,0.4-0.7,1-0.7,1.6l0,0.3l-0.5,6.8l0,0.3c0,0.1,0,0.1-0.1,0.1
			c0,0-0.1,0-0.1,0L1156.9,212.4z"/>
		<path d="M1172.9,186.2c0,0.2,0,0.4-0.1,0.6c-0.8,7.4-5.4,10.4-11.6,10.9l-3.1,0.3c-0.8,0.1-1.4,0.7-1.4,1.4l-0.7,10.4l-0.2,2.9
			c0,0.5,0.4,0.9,0.9,0.9l5.6-0.5c0.7-0.1,1.2-0.6,1.2-1.3l0-0.3l0.5-6.8l0-0.4c0-0.7,0.6-1.2,1.2-1.3l0.8-0.1
			c5.4-0.5,9.5-3,10.2-9.5c0.3-2.7-0.2-4.9-1.7-6.4C1174,186.8,1173.5,186.4,1172.9,186.2z"/>
		<path d="M1171.3,185.7c-0.2,0-0.4-0.1-0.7-0.1c-0.2,0-0.5-0.1-0.7-0.1c-0.9-0.1-1.8,0-2.8,0l-8.4,0.7c-0.2,0-0.4,0.1-0.6,0.2
			c-0.4,0.2-0.6,0.6-0.7,1.1l-0.8,11.5l0,0.3c0.1-0.8,0.7-1.4,1.4-1.4l3.1-0.3c6.2-0.5,10.8-3.5,11.6-10.9c0-0.2,0-0.4,0.1-0.6
			c-0.4-0.2-0.8-0.3-1.2-0.4C1171.5,185.8,1171.4,185.7,1171.3,185.7z"/>
		<path d="M1157.5,187.6c0-0.5,0.3-0.8,0.7-1.1c0.2-0.1,0.4-0.2,0.6-0.2l8.4-0.7c1-0.1,1.9-0.1,2.8,0c0.2,0,0.5,0,0.7,0.1
			c0.2,0,0.5,0.1,0.7,0.1c0.1,0,0.2,0,0.3,0.1c0.4,0.1,0.8,0.2,1.2,0.4c0.2-2.7-0.4-4.5-2-6.1c-1.8-1.7-4.7-2.2-8.4-1.9l-10.8,0.9
			c-0.8,0.1-1.4,0.7-1.4,1.4l-2,28.8c0,0.6,0.4,1,1,1l6.6-0.6l0.8-10.7L1157.5,187.6z"/>
	</g>
</g>
<g>
	<defs>
		
			<rect id="SVGID_00000122001484081248529330000002892360840255526578_" x="1393.1" y="146.9" transform="matrix(0.9962 -8.711036e-02 8.711036e-02 0.9962 -9.3234 128.1881)" width="142" height="48"/>
	</defs>
	<clipPath id="SVGID_00000148661838342260804070000007019322619946205624_">
		<use xlink:href="#SVGID_00000122001484081248529330000002892360840255526578_"  style="overflow:visible;"/>
	</clipPath>
	<g style="clip-path:url(#SVGID_00000148661838342260804070000007019322619946205624_);">
		<path class="st3" d="M1396.8,188.7c-3.5-2.9-4-8.1-1-11.6l8-9.5c2.5-3,6.7-3.7,10-2.1c1,0.5,1.2,1.8,0.4,2.7
			c-0.7,0.9-2.1,0.9-3.2,0.7c-1.4-0.3-3,0.2-4,1.4l-8,9.5c-1.5,1.7-1.3,4.4,0.5,5.8c1.8,1.5,4.4,1.2,5.9-0.5l16.1-19
			c3-3.5,8.2-4,11.7-1l9.6,8c3.5,2.9,4,8.1,1,11.6c-3,3.5-8.2,4-11.7,1l-3.2-2.7l-3.3,4c-2.5,3-6.7,3.7-10,2.1
			c-1-0.5-1.2-1.8-0.4-2.7c0.7-0.9,2.1-0.9,3.2-0.7c1.4,0.3,3-0.2,4-1.4l3.4-4.1c1.4-1.7,4-1.9,5.7-0.5l3.3,2.7
			c1.8,1.5,4.4,1.2,5.9-0.5c1.5-1.7,1.2-4.4-0.5-5.8l-9.6-8c-1.8-1.5-4.4-1.2-5.9,0.5l-16.1,19
			C1405.6,191.2,1400.4,191.6,1396.8,188.7z"/>
		<path d="M1477.7,163.4c-2,0.2-3.5,1-4.4,2.6c-1-1.4-2.5-2-4.4-1.8c-1.9,0.2-3.3,1-4.1,2.4l-0.1-1.6l-4,0.3l1.3,15.2l4-0.3
			l-0.7-8.5c-0.2-2.2,0.8-3.5,2.6-3.7c1.6-0.1,2.7,0.8,2.8,2.7l0.8,9.1l4-0.3l-0.8-8.5c-0.2-2.2,0.8-3.5,2.6-3.7
			c1.6-0.1,2.7,0.8,2.9,2.7l0.8,9.1l4-0.3l-0.8-9.4C1483.8,165.3,1481.3,163.1,1477.7,163.4z"/>
		<path d="M1498.6,163.8c-1.3-1.4-3.1-2-5.2-1.8c-2.1,0.2-3.8,1.1-5.1,2.8c-1.3,1.7-1.9,3.6-1.7,5.9c0.2,2.2,1.1,4.1,2.7,5.5
			c1.6,1.4,3.4,2,5.5,1.8c2.2-0.2,3.8-1.1,4.8-2.7l0.2,1.8l4-0.3l-1.3-15.2l-4,0.3L1498.6,163.8z M1492,173.4
			c-0.9-0.8-1.4-1.8-1.5-3c-0.1-1.2,0.2-2.3,0.9-3.2c0.7-0.9,1.7-1.4,3-1.5c1.2-0.1,2.3,0.2,3.2,0.9c0.9,0.7,1.4,1.7,1.5,3
			c0.1,1.2-0.2,2.3-1,3.2c-0.7,0.9-1.7,1.3-2.9,1.5C1493.9,174.4,1492.9,174.1,1492,173.4z"/>
		<path d="M1517.3,163l-0.2-2.6l-11.6,1l0.3,3.7l6.2-0.5l-5.7,9.5l0.2,2.6l12.2-1.1l-0.3-3.7l-6.9,0.6L1517.3,163z"/>
		<path d="M1534.9,168.1c0-0.6,0.1-1.1,0-1.6c-0.2-2.3-1.1-4.1-2.7-5.5c-1.6-1.4-3.5-2-5.8-1.8c-2.4,0.2-4.3,1.1-5.7,2.8
			c-1.4,1.7-2,3.6-1.8,5.9c0.2,2.3,1.1,4.2,2.8,5.5c1.7,1.4,3.8,2,6.3,1.7c3-0.3,5.1-1.6,6.5-3.8l-3.4-1.5c-0.7,1.1-1.8,1.7-3.3,1.8
			c-2.4,0.2-3.9-0.6-4.6-2.5L1534.9,168.1z M1522.9,166.1c0.3-2,1.6-3.2,3.8-3.4c1.8-0.2,3.5,0.7,4.1,2.7L1522.9,166.1z"/>
	</g>
</g>
<g>
	<defs>
		
			<rect id="SVGID_00000104698298131692420730000002090311265844053663_" x="384.8" y="230.9" transform="matrix(0.9962 -8.711036e-02 8.711036e-02 0.9962 -20.289 44.8524)" width="238" height="48"/>
	</defs>
	<clipPath id="SVGID_00000108309690894766582870000012929940587421956993_">
		<use xlink:href="#SVGID_00000104698298131692420730000002090311265844053663_"  style="overflow:visible;"/>
	</clipPath>
	<g style="clip-path:url(#SVGID_00000108309690894766582870000012929940587421956993_);">
		<path d="M399.2,260.2l8.4-10.1l10,8.5l4.9-5.9l-15.9-13.4l-13.3,16L399.2,260.2z"/>
		<path d="M395.8,264.3l-5.8-4.9l-4.9,5.9l5.8,4.9L395.8,264.3z"/>
		<path d="M399.9,267.8l10,8.5l8.4-10.1l5.8,4.9l0,0l-13.3,16L395,273.7l0,0L399.9,267.8z"/>
		<path d="M427.6,267l4.9-5.9l-5.8-4.9l-4.9,5.9L427.6,267z"/>
		<path d="M414.2,262.7L414.2,262.7l-5.9-5l-3.7,4.4h0l-0.4,0.5l-0.9,1l0,0l0,0l5.9,5L414.2,262.7L414.2,262.7L414.2,262.7z"/>
		<path d="M439.8,248.1l11.7-1c2.9-0.3,5.2,0.3,6.8,1.7c1.3,1.1,2,2.4,2.1,4.2l0,0.1c0.1,0.7,0,1.4-0.1,1.9
			c-0.1,0.6-0.3,1.1-0.6,1.6c-0.3,0.5-0.6,0.9-0.9,1.3c-0.4,0.4-0.8,0.7-1.2,1c1.5,0.4,2.7,1.1,3.6,2c0.9,0.9,1.5,2.2,1.6,3.9l0,0.1
			c0.1,1.2,0,2.2-0.4,3.1c-0.4,0.9-0.9,1.7-1.7,2.3c-0.8,0.7-1.7,1.2-2.9,1.6c-1.1,0.4-2.4,0.6-3.8,0.8l-12,1L439.8,248.1z
			 M451.2,257.4c1.2-0.1,2.2-0.4,2.9-0.9c0.7-0.5,1-1.2,0.9-2.1l0-0.1c-0.1-0.8-0.4-1.5-1.1-1.9c-0.7-0.4-1.6-0.5-2.8-0.4l-5.5,0.5
			l0.5,5.4L451.2,257.4z M453.6,267.5c1.2-0.1,2.2-0.4,2.8-0.9c0.7-0.5,0.9-1.2,0.9-2.2l0-0.1c-0.1-0.8-0.5-1.5-1.1-1.9
			c-0.7-0.4-1.8-0.6-3.2-0.5l-6.4,0.6l0.5,5.6L453.6,267.5L453.6,267.5z"/>
		<path d="M468.1,245.6l5.5-0.5l2.2,25.4l-5.5,0.5L468.1,245.6z"/>
		<path d="M482.1,244.4l5.1-0.4l13.2,14.6l-1.4-15.6l5.5-0.5l2.2,25.4l-4.7,0.4l-13.6-15.1l1.4,16.1l-5.5,0.5L482.1,244.4z"/>
		<path d="M521.2,240.8l5.1-0.4l13,24.6l-5.8,0.5l-2.8-5.5l-10.7,0.9l-1.8,5.9l-5.7,0.5L521.2,240.8z M528.3,255.2l-4.1-7.9
			l-2.6,8.5L528.3,255.2z"/>
		<path d="M543.1,239l5.1-0.4l13.2,14.6l-1.4-15.6l5.5-0.5l2.2,25.4l-4.7,0.4l-13.6-15.1l1.4,16.1l-5.5,0.5L543.1,239z"/>
		<path d="M587.7,261.1c-1.8,0.2-3.6,0-5.2-0.6c-1.6-0.5-3.1-1.3-4.3-2.4c-1.3-1.1-2.3-2.4-3.1-3.9c-0.8-1.5-1.3-3.2-1.4-5l0-0.1
			c-0.2-1.8,0-3.5,0.5-5.2c0.5-1.6,1.3-3.1,2.3-4.4c1-1.3,2.3-2.4,3.9-3.2c1.5-0.8,3.3-1.3,5.2-1.5c1.2-0.1,2.3-0.1,3.2,0
			c1,0.1,1.9,0.3,2.7,0.6c0.8,0.3,1.6,0.6,2.3,1c0.7,0.4,1.4,0.9,2,1.4l-3.2,4.4c-1.1-0.8-2.1-1.4-3.2-1.8c-1.1-0.4-2.2-0.6-3.5-0.5
			c-1.1,0.1-2,0.4-2.9,0.9c-0.9,0.5-1.6,1.1-2.2,1.9c-0.6,0.8-1,1.7-1.3,2.6c-0.3,1-0.4,2-0.3,3.1l0,0.1c0.1,1.1,0.4,2.1,0.8,3
			c0.4,0.9,1,1.7,1.7,2.4c0.7,0.7,1.5,1.2,2.5,1.5c0.9,0.3,1.9,0.5,3,0.4c1.4-0.1,2.6-0.5,3.6-1.1s1.9-1.4,2.8-2.4l3.8,3.3
			c-0.6,0.8-1.2,1.4-1.9,2.1c-0.6,0.6-1.4,1.2-2.2,1.6c-0.8,0.5-1.7,0.9-2.6,1.1C590,260.8,588.9,261,587.7,261.1z"/>
		<path d="M602.3,233.9l19-1.7l0.4,5l-13.5,1.2l0.5,5.1l11.9-1l0.4,5l-11.9,1l0.5,5.3l13.7-1.2l0.4,5l-19.1,1.7L602.3,233.9z"/>
	</g>
</g>
</svg>
